HIERARCHY
ROOT root
{
	OFFSET	0	13.1	24.9
	CHANNELS 6  Xposition Yposition Zposition Xrotation Yrotation Zrotation
	JOINT spine_1
	{
		OFFSET	0	9.99999	0
		CHANNELS 3  Xrotation Yrotation Zrotation
		JOINT spine_2
		{
			OFFSET	0	112	-10
			CHANNELS 3  Xrotation Yrotation Zrotation
			JOINT spine_3
			{
				OFFSET	0	206.5	19.3
				CHANNELS 3  Xrotation Yrotation Zrotation
				JOINT spine_4
				{
					OFFSET	0	110.4	14.6
					CHANNELS 3  Xrotation Yrotation Zrotation
					JOINT neck_1
					{
						OFFSET	0	71.8	-50.3
						CHANNELS 3  Xrotation Yrotation Zrotation
						JOINT neck_2
						{
							OFFSET	0	86.2	-25.8
							CHANNELS 3  Xrotation Yrotation Zrotation
							JOINT head_ee
							{
								OFFSET	0	179.8	-8.7
								CHANNELS 3  Xrotation Yrotation Zrotation
								End Site
								{
									OFFSET	1	0	0
								}
							}
						}
					}
					JOINT left_clavicle
					{
						OFFSET	-43.2	22.4	-70.8
						CHANNELS 3  Xrotation Yrotation Zrotation
						JOINT left_shoulder
						{
							OFFSET	-93.9	-5.79999	48.7
							CHANNELS 3  Xrotation Yrotation Zrotation
							JOINT left_elbow
							{
								OFFSET	-291.4	-30.8	15.2
								CHANNELS 3  Xrotation Yrotation Zrotation
								JOINT left_lowarm_twist
								{
									OFFSET	-110.7	-3.89999	13.6
									CHANNELS 3  Xrotation Yrotation Zrotation
									JOINT left_hand
									{
										OFFSET	-110.7	-3.89999	13.6
										CHANNELS 3  Xrotation Yrotation Zrotation
										JOINT left_ee
										{
											OFFSET	-80.8	-5.10001	12.1
											CHANNELS 3  Xrotation Yrotation Zrotation
											End Site
											{
												OFFSET	1	0	0
											}
										}
									}
								}
							}
						}
					}
					JOINT right_clavicle
					{
						OFFSET	43.2	22.4	-70.8
						CHANNELS 3  Xrotation Yrotation Zrotation
						JOINT right_shoulder
						{
							OFFSET	93.9	-5.79999	48.7
							CHANNELS 3  Xrotation Yrotation Zrotation
							JOINT right_elbow
							{
								OFFSET	291.4	-30.8	15.2
								CHANNELS 3  Xrotation Yrotation Zrotation
								JOINT right_lowarm_twist
								{
									OFFSET	110.7	-3.89999	13.6
									CHANNELS 3  Xrotation Yrotation Zrotation
									JOINT right_hand
									{
										OFFSET	110.7	-3.89999	13.6
										CHANNELS 3  Xrotation Yrotation Zrotation
										JOINT right_ee
										{
											OFFSET	80.8	-5.10001	12.1
											CHANNELS 3  Xrotation Yrotation Zrotation
											End Site
											{
												OFFSET	1	0	0
											}
										}
									}
								}
							}
						}
					}
				}
			}
		}
	}
	JOINT left_hip
	{
		OFFSET	-82.8	-127.5	0.300001
		CHANNELS 3  Xrotation Yrotation Zrotation
		JOINT left_knee
		{
			OFFSET	-28.2	-396.7	2.2
			CHANNELS 3  Xrotation Yrotation Zrotation
			JOINT left_ankle
			{
				OFFSET	-11.7	-411.3	35.4
				CHANNELS 3  Xrotation Yrotation Zrotation
				JOINT left_toes
				{
					OFFSET	0	-60	-88.6
					CHANNELS 3  Xrotation Yrotation Zrotation
					JOINT left_foot_ee
					{
						OFFSET	-22.5	-16.5	-42.2
						CHANNELS 3  Xrotation Yrotation Zrotation
						End Site
						{
							OFFSET	1	0	0
						}
					}
				}
			}
		}
	}
	JOINT right_hip
	{
		OFFSET	82.8	-127.5	0.300001
		CHANNELS 3  Xrotation Yrotation Zrotation
		JOINT right_knee
		{
			OFFSET	28.2	-396.7	2.2
			CHANNELS 3  Xrotation Yrotation Zrotation
			JOINT right_ankle
			{
				OFFSET	11.7	-411.3	35.4
				CHANNELS 3  Xrotation Yrotation Zrotation
				JOINT right_toes
				{
					OFFSET	0	-60	-88.6
					CHANNELS 3  Xrotation Yrotation Zrotation
					JOINT right_foot_ee
					{
						OFFSET	22.5	-16.5	-42.2
						CHANNELS 3  Xrotation Yrotation Zrotation
						End Site
						{
							OFFSET	1	0	0
						}
					}
				}
			}
		}
	}
}
MOTION
Frames: 16
Frame Time: 0.02
1057.6122552 727.906 -1483.80959896 122.963544172 80.3248472232 -122.506034302 -3.4937 -0.349745 1.18165 -3.49303 -0.424223 1.15701 -3.50125 -0.720425 0.999824 -3.50221 -0.553491 1.10104 -6.64281 -4.84165 -2.95316 -6.6213 -6.8299 -3.9134 -0.0 0.0 -0.0 0.419335 10.9381 2.00742 -12.117 -16.8195 65.4847 0.35728 -10.0368 0.0313737 -36.8891 -2.62656 3.8284 6.54542 1.79926 51.0107 -0.0 0.0 -0.0 4.5605 28.4051 -6.65367 4.67534 1.22667 -66.4253 2.79909 54.191 -1.4323 32.4141 0.0145485 4.08594 0.568595 -5.99164 -6.2317 0.0 0.0 0.0 13.623 -1.66006 -3.10365 -70.5216 -3.43657 9.57513 13.1683 4.97209 -1.85237 -30.4904 0.0 0.0 -0.0 0.0 -0.0 -10.8418 -4.32852 -7.98277 6.00112 0.293216 0.873529 21.0162 19.1233 3.18022 25.4802 -0.0 -0.0 0.0 0.0 0.0 
1048.0939264 728.527 -1492.38899708 109.092979956 80.8539997139 -108.680685474 -3.75089 -0.123225 1.51047 -3.74965 -0.21908 1.49957 -3.75407 -0.621343 1.38229 -3.75652 -0.395264 1.46305 -7.86744 -4.26767 -3.59759 -7.83727 -5.40835 -4.48528 -0.0 0.0 -0.0 0.299019 11.1559 1.82667 -12.9152 -16.2729 64.4805 0.36336 -10.2041 0.0324421 -36.8727 -2.62488 3.82713 6.66628 1.67724 52.2653 -0.0 0.0 -0.0 3.83296 29.0952 -4.99985 6.20201 2.009 -66.6836 3.09857 56.9041 -1.67932 33.4011 0.0512281 4.20663 0.749291 -5.9398 -7.40195 0.0 0.0 0.0 17.7541 -2.69528 -2.3724 -68.8509 -3.22759 9.42378 13.8282 4.51256 -1.94097 -30.8926 0.0 0.0 -0.0 0.0 -0.0 -12.3606 -4.77157 -8.19112 6.03653 0.295217 0.87859 21.2433 18.5388 3.1948 24.6981 -0.0 -0.0 0.0 0.0 0.0 
1023.66482971 730.725 -1491.89503851 113.790193557 80.215811688 -113.743925627 -3.73773 0.253699 1.49173 -3.73651 0.158274 1.50485 -3.73043 -0.259129 1.4908 -3.73353 -0.020461 1.51301 -7.61884 -4.32577 -2.66871 -7.60436 -6.15689 -3.56716 -0.0 0.0 -0.0 0.201214 11.8239 1.73549 -13.6485 -15.3262 62.6135 0.387362 -10.8625 0.0368298 -35.6074 -2.49658 3.72767 6.81746 0.897997 53.5236 -0.0 0.0 -0.0 3.66437 28.0409 -4.74729 6.77791 2.43232 -65.5449 3.22056 57.9071 -1.7821 34.0991 0.078425 4.29161 0.963558 -5.56777 -8.67357 0.0 0.0 0.0 19.859 -3.65698 -2.55294 -69.013 -3.24766 9.43872 12.5669 1.61842 -1.77987 -30.9364 0.0 0.0 -0.0 0.0 -0.0 -14.9068 -4.22821 -7.75247 6.25974 0.307901 0.91046 21.6049 17.3952 3.21283 24.4053 -0.0 -0.0 0.0 0.0 0.0 
1001.17516919 731.662 -1490.86312302 112.645160615 80.0123943135 -113.101343142 -3.72511 0.481209 1.60084 -3.72377 0.378382 1.62821 -3.71051 -0.0804698 1.66965 -3.71435 0.184193 1.66141 -7.28221 -3.55013 -2.19933 -7.27163 -5.02417 -2.92542 -0.0 0.0 -0.0 0.195267 12.4791 1.7986 -14.4536 -14.6036 61.3642 0.341496 -9.60186 0.0286819 -36.726 -2.60989 3.81574 6.95999 0.266363 54.7944 -0.0 0.0 -0.0 3.46911 27.4486 -4.38643 7.11865 3.5403 -64.9086 3.48563 59.9082 -2.00912 35.288 0.127128 4.43558 1.25741 -5.24503 -10.5044 0.0 0.0 0.0 20.4654 -1.59151 -3.59013 -62.4683 -2.47232 8.79162 11.433 -1.26082 -1.63724 -30.7191 0.0 0.0 -0.0 0.0 -0.0 -15.9135 -3.8924 -7.48386 5.9741 0.291692 0.869667 23.1656 19.2293 3.46616 24.8256 -0.0 -0.0 0.0 0.0 0.0 
985.168026497 729.475 -1490.94731852 108.934695538 80.0764627184 -109.636464038 -3.71091 0.559353 1.60582 -3.70959 0.456051 1.63815 -3.69394 -0.00793757 1.70041 -3.69788 0.260671 1.68033 -7.34198 -4.5742 -4.40499 -7.29343 -5.35055 -5.33446 -0.0 0.0 -0.0 0.350732 12.8908 2.10153 -15.9917 -14.2574 60.6061 0.33602 -9.45068 0.0277756 -37.4142 -2.68045 3.86882 7.11358 -0.125275 56.3873 -0.0 0.0 -0.0 3.22884 26.6236 -3.95185 7.77971 5.29392 -64.0041 3.64924 61.0337 -2.15148 36.3516 0.173224 4.5635 1.47612 -4.80456 -11.801 0.0 0.0 0.0 19.1435 -1.10736 -3.70937 -56.4192 -1.82598 8.11926 8.33142 -3.59455 -1.21565 -31.4584 0.0 0.0 -0.0 0.0 -0.0 -16.6367 -4.17943 -7.17552 5.64175 0.273089 0.822105 22.4507 17.7569 3.33237 24.4439 -0.0 -0.0 0.0 0.0 0.0 
964.316345094 726.361 -1489.46900632 104.812951965 79.905846991 -105.219342597 -3.8802 0.479909 1.43527 -3.87914 0.387617 1.46289 -3.86712 -0.0305816 1.51305 -3.87026 0.208733 1.4989 -7.41623 -3.25164 -3.68615 -7.38123 -3.41114 -4.34735 -0.0 0.0 -0.0 0.207766 13.8532 1.9715 -16.3888 -13.2443 61.4355 0.346617 -9.7431 0.0295423 -37.6544 -2.70523 3.88716 7.24101 -0.695986 57.586 -0.0 0.0 -0.0 3.10004 26.7982 -3.65412 8.31691 4.77203 -62.9889 3.79557 61.9768 -2.2801 36.0718 0.160865 4.52992 1.84606 -4.58489 -14.2195 0.0 0.0 0.0 18.8066 -1.08365 -3.02472 -44.1037 -0.74827 6.56298 5.47122 -6.86323 -0.816958 -32.3381 0.0 0.0 -0.0 0.0 -0.0 -18.4088 -2.86995 -6.58581 6.30926 0.310732 0.917524 22.17 18.9673 3.32883 24.7114 -0.0 -0.0 0.0 0.0 0.0 
943.943952115 728.964 -1490.14190422 97.3065418853 80.4372245192 -98.1210531454 -3.83735 0.710128 1.58759 -3.83615 0.607681 1.62955 -3.81609 0.136664 1.73376 -3.82005 0.408724 1.69044 -8.24723 -1.79753 -3.11385 -8.22079 -1.16691 -3.47609 -0.0 0.0 -0.0 0.481133 14.023 2.43465 -17.0837 -12.9618 61.0161 0.331326 -9.321 0.0270101 -36.1579 -2.55213 3.77128 7.33664 -2.22933 57.6944 -0.0 0.0 -0.0 2.86931 23.8716 -3.45659 6.99984 7.12943 -62.0135 4.00979 63.2593 -2.47033 37.1557 0.209648 4.65964 2.20943 -3.32087 -16.2289 0.0 0.0 0.0 17.4567 -1.29578 -2.04464 -35.0289 -0.181162 5.28997 5.51602 -5.38297 -0.818136 -34.3715 0.0 0.0 -0.0 0.0 -0.0 -20.1969 -3.29625 -5.90054 7.06849 0.354901 1.02553 19.4921 18.0158 2.94657 23.3333 -0.0 -0.0 0.0 0.0 0.0 
943.774423245 728.964 -1484.02237562 102.064209454 80.2993446065 -102.946662419 -3.83735 0.710128 1.58759 -3.83615 0.607681 1.62955 -3.81609 0.136664 1.73376 -3.82005 0.408724 1.69044 -8.24723 -1.79753 -3.11385 -8.22079 -1.16691 -3.47609 -0.0 0.0 -0.0 0.481133 14.023 2.43465 -17.0837 -12.9618 61.0161 0.331326 -9.321 0.0270101 -36.1579 -2.55213 3.77128 7.33664 -2.22933 57.6944 -0.0 0.0 -0.0 2.86931 23.8716 -3.45659 6.99984 7.12943 -62.0135 4.00979 63.2593 -2.47033 37.1557 0.209648 4.65964 2.20943 -3.32087 -16.2289 0.0 0.0 0.0 17.4567 -1.29578 -2.04464 -35.0289 -0.181162 5.28997 5.51602 -5.38297 -0.818136 -34.3715 0.0 0.0 -0.0 0.0 -0.0 -20.1969 -3.29625 -5.90054 7.06849 0.354901 1.02553 19.4921 18.0158 2.94657 23.3333 -0.0 -0.0 0.0 0.0 0.0 
922.893414528 724.318 -1489.34863646 100.182697693 80.2659203705 -101.139849538 -3.83889 0.467528 1.62546 -3.8375 0.363163 1.6519 -3.82442 -0.104944 1.68808 -3.82836 0.162936 1.68348 -8.42205 -1.31706 -3.92933 -8.3784 0.292764 -4.17475 -0.0 0.0 -0.0 0.225008 14.2666 2.04496 -17.9487 -12.7498 60.9548 0.297691 -8.38899 0.0218324 -39.0183 -2.84737 3.98926 7.40262 -0.70069 59.6856 -0.0 0.0 -0.0 2.94388 23.396 -3.66639 7.00351 8.08288 -61.2059 4.21032 64.3645 -2.65028 37.4271 0.222246 4.69197 2.77878 -3.00868 -20.0886 0.0 0.0 0.0 14.7257 -1.10177 -0.601933 -17.8285 0.315165 2.70677 2.93773 -5.39678 -0.439185 -34.4574 0.0 0.0 -0.0 0.0 -0.0 -22.3602 -2.31205 -5.21967 7.30776 0.369118 1.05944 22.7134 17.9108 3.37047 22.715 -0.0 -0.0 0.0 0.0 0.0 
922.770860392 724.318 -1484.68104404 103.55772123 80.1434104313 -104.564771415 -3.83889 0.467528 1.62546 -3.8375 0.363163 1.6519 -3.82442 -0.104944 1.68808 -3.82836 0.162936 1.68348 -8.42205 -1.31706 -3.92933 -8.3784 0.292764 -4.17475 -0.0 0.0 -0.0 0.225008 14.2666 2.04496 -17.9487 -12.7498 60.9548 0.297691 -8.38899 0.0218324 -39.0183 -2.84737 3.98926 7.40262 -0.70069 59.6856 -0.0 0.0 -0.0 2.94388 23.396 -3.66639 7.00351 8.08288 -61.2059 4.21032 64.3645 -2.65028 37.4271 0.222246 4.69197 2.77878 -3.00868 -20.0886 0.0 0.0 0.0 14.7257 -1.10177 -0.601933 -17.8285 0.315165 2.70677 2.93773 -5.39678 -0.439185 -34.4574 0.0 0.0 -0.0 0.0 -0.0 -22.3602 -2.31205 -5.21967 7.30776 0.369118 1.05944 22.7134 17.9108 3.37047 22.715 -0.0 -0.0 0.0 0.0 0.0 
897.100408951 718.748 -1485.09658153 101.978807231 79.8771226913 -103.388030327 -3.80302 0.479808 1.65472 -3.80157 0.373557 1.68189 -3.78792 -0.102095 1.71984 -3.792 0.170762 1.71438 -8.53209 -0.378511 -3.1025 -8.50451 1.46169 -3.14658 -0.0 0.0 -0.0 0.0856516 14.5367 1.84979 -18.2318 -12.7464 60.8441 0.292528 -8.2455 0.0210854 -38.9464 -2.83981 3.98396 7.28156 -0.338626 58.3542 -0.0 0.0 -0.0 2.95364 24.0482 -3.62121 7.11383 9.8218 -60.7538 4.13247 63.9457 -2.58021 37.6998 0.235059 4.7244 2.79295 -3.38197 -20.3305 0.0 0.0 0.0 14.1117 -0.669189 0.626483 -9.33865 0.270406 1.4061 3.70962 -5.18119 -0.552823 -34.7764 0.0 0.0 -0.0 0.0 -0.0 -25.1238 -2.25345 -4.56098 7.67156 0.391006 1.1109 19.1792 17.5126 2.89225 22.4808 -0.0 -0.0 0.0 0.0 0.0 
879.10403159 714.429 -1486.16581095 99.9196846066 80.5700555192 -101.422395876 -3.66068 0.454069 1.63324 -3.65926 0.349237 1.65881 -3.64662 -0.11499 1.69126 -3.65058 0.153518 1.6882 -8.6928 0.0264789 -3.78516 -8.65191 2.68751 -3.72473 -0.0 0.0 -0.0 0.454575 14.3327 2.42364 -18.529 -12.3551 60.7123 0.289467 -8.16039 0.0206487 -38.9043 -2.8354 3.98086 7.22972 -0.676005 57.4575 -0.0 0.0 -0.0 3.45077 24.5282 -4.64944 7.8675 9.35112 -59.2022 3.71409 61.4587 -2.20834 38.1087 0.254565 4.77292 3.01805 -4.22644 -22.2502 0.0 0.0 0.0 13.2068 -0.0621099 1.5388 -1.749 0.0680528 0.259772 1.66073 -7.28908 -0.251339 -36.8345 0.0 0.0 -0.0 0.0 -0.0 -25.0047 -1.7313 -4.04525 7.28884 0.367988 1.05676 15.9764 15.9338 2.41819 22.2951 -0.0 -0.0 0.0 0.0 0.0 
879.013250871 714.429 -1480.72477587 103.621895259 80.4409885481 -105.17598671 -3.66068 0.454069 1.63324 -3.65926 0.349237 1.65881 -3.64662 -0.11499 1.69126 -3.65058 0.153518 1.6882 -8.6928 0.0264789 -3.78516 -8.65191 2.68751 -3.72473 -0.0 0.0 -0.0 0.454575 14.3327 2.42364 -18.529 -12.3551 60.7123 0.289467 -8.16039 0.0206487 -38.9043 -2.8354 3.98086 7.22972 -0.676005 57.4575 -0.0 0.0 -0.0 3.45077 24.5282 -4.64944 7.8675 9.35112 -59.2022 3.71409 61.4587 -2.20834 38.1087 0.254565 4.77292 3.01805 -4.22644 -22.2502 0.0 0.0 0.0 13.2068 -0.0621099 1.5388 -1.749 0.0680528 0.259772 1.66073 -7.28908 -0.251339 -36.8345 0.0 0.0 -0.0 0.0 -0.0 -25.0047 -1.7313 -4.04525 7.28884 0.367988 1.05676 15.9764 15.9338 2.41819 22.2951 -0.0 -0.0 0.0 0.0 0.0 
878.989195616 714.429 -1472.65451192 108.896114442 80.1781392977 -110.526425802 -3.66068 0.454069 1.63324 -3.65926 0.349237 1.65881 -3.64662 -0.11499 1.69126 -3.65058 0.153518 1.6882 -8.6928 0.0264789 -3.78516 -8.65191 2.68751 -3.72473 -0.0 0.0 -0.0 0.454575 14.3327 2.42364 -18.529 -12.3551 60.7123 0.289467 -8.16039 0.0206487 -38.9043 -2.8354 3.98086 7.22972 -0.676005 57.4575 -0.0 0.0 -0.0 3.45077 24.5282 -4.64944 7.8675 9.35112 -59.2022 3.71409 61.4587 -2.20834 38.1087 0.254565 4.77292 3.01805 -4.22644 -22.2502 0.0 0.0 0.0 13.2068 -0.0621099 1.5388 -1.749 0.0680528 0.259772 1.66073 -7.28908 -0.251339 -36.8345 0.0 0.0 -0.0 0.0 -0.0 -25.0047 -1.7313 -4.04525 7.28884 0.367988 1.05676 15.9764 15.9338 2.41819 22.2951 -0.0 -0.0 0.0 0.0 0.0 
711.994103205 700.525 -1486.11077274 56.6477288006 76.7083734968 -56.5445373502 -4.49189 0.374018 1.55328 -4.49059 0.274434 1.57392 -4.48052 -0.187032 1.58668 -4.48403 0.0658687 1.5963 -9.19989 2.30013 1.06159 -9.20011 3.58417 1.5841 -0.0 0.0 -0.0 3.44412 6.93654 7.00181 -20.8066 -11.252 63.5929 0.425671 -11.9074 0.0443923 -39.744 -2.92398 4.04221 4.80928 -4.87788 31.9803 -0.0 0.0 -0.0 7.0093 28.3306 -11.9984 8.43645 8.9897 -57.099 1.76383 41.1416 -0.661999 34.3789 0.0896188 4.32559 4.16632 -23.9643 -36.1119 0.0 0.0 0.0 10.5105 8.29019 2.17237 -4.13475 0.14802 0.617157 8.57023 10.8022 -1.22557 -38.323 0.0 0.0 -0.0 0.0 -0.0 -29.4103 8.80283 -0.655227 -11.7773 -0.302993 -1.77885 -7.60099 2.03086 -1.14912 24.9103 -0.0 -0.0 0.0 0.0 0.0 
711.928896331 700.525 -1480.92300938 58.2699894444 76.9506153215 -58.2106123335 -4.49189 0.374018 1.55328 -4.49059 0.274434 1.57392 -4.48052 -0.187032 1.58668 -4.48403 0.0658687 1.5963 -9.19989 2.30013 1.06159 -9.20011 3.58417 1.5841 -0.0 0.0 -0.0 3.44412 6.93654 7.00181 -20.8066 -11.252 63.5929 0.425671 -11.9074 0.0443923 -39.744 -2.92398 4.04221 4.80928 -4.87788 31.9803 -0.0 0.0 -0.0 7.0093 28.3306 -11.9984 8.43645 8.9897 -57.099 1.76383 41.1416 -0.661999 34.3789 0.0896188 4.32559 4.16632 -23.9643 -36.1119 0.0 0.0 0.0 10.5105 8.29019 2.17237 -4.13475 0.14802 0.617157 8.57023 10.8022 -1.22557 -38.323 0.0 0.0 -0.0 0.0 -0.0 -29.4103 8.80283 -0.655227 -11.7773 -0.302993 -1.77885 -7.60099 2.03086 -1.14912 24.9103 -0.0 -0.0 0.0 0.0 0.0 
